
        <svg xmlns="http://www.w3.org/2000/svg" xmlns:xlink="http://www.w3.org/1999/xlink" version="1.1" width="3181.8" height="1372.7" viewBox="0 0 3181.8181818181824 1372.7272727272727">
			
			<g transform="matrix(9.1,0,0,9.1,90.9,90.9)">
				<defs id="SvgjsDefs1407"/><g id="SvgjsG1408" featureKey="symbolContainer" transform="matrix(1,0,0,1,0,0)" fill="#000000"><rect width="110" height="131" rx="8"/></g><g id="SvgjsG1409" featureKey="symbolFeature-0" transform="matrix(1.1,0,0,1.1,-0.9,9.4)" fill="#ffffff"><g xmlns="http://www.w3.org/2000/svg"><path d="M 24.1 63.3 h 4.3 c 0.3 0 0.5 -0.2 0.5 -0.5 v -1.5 c 0 -1.5 -1.2 -2.6 -2.6 -2.6 c -1.5 0 -2.6 1.2 -2.6 2.6 v 1.5 C 23.6 63.1 23.8 63.3 24.1 63.3 z M 24.6 61.3 c 0 -0.9 0.7 -1.7 1.7 -1.7 c 0.9 0 1.7 0.7 1.7 1.7 v 1.1 h -3.3 V 61.3 z"/><path d="M 42.3 69.9 h 2.5 c 0.3 0 0.5 -0.2 0.5 -0.5 v -2.3 c 0 -1 -0.8 -1.7 -1.7 -1.7 c -1 0 -1.7 0.8 -1.7 1.7 v 2.3 C 41.8 69.6 42 69.9 42.3 69.9 z M 42.7 67.1 c 0 -0.4 0.3 -0.8 0.8 -0.8 c 0.4 0 0.8 0.3 0.8 0.8 v 1.8 h -1.5 V 67.1 z"/><path d="M 52.9 69.9 h 2.5 c 0.3 0 0.5 -0.2 0.5 -0.5 v -2.3 c 0 -1 -0.8 -1.7 -1.7 -1.7 s -1.7 0.8 -1.7 1.7 v 2.3 C 52.4 69.6 52.6 69.9 52.9 69.9 z M 53.4 67.1 c 0 -0.4 0.3 -0.8 0.8 -0.8 c 0.4 0 0.8 0.3 0.8 0.8 v 1.8 h -1.5 V 67.1 z"/><path d="M 73.2 55.2 c -0.8 0 -1.4 0.6 -1.4 1.4 v 5.6 c 0 0.3 0.2 0.5 0.5 0.5 h 1.9 c 0.3 0 0.5 -0.2 0.5 -0.5 V 56.6 C 74.6 55.9 73.9 55.2 73.2 55.2 z M 73.6 61.7 h -0.9 V 56.6 c 0 -0.2 0.2 -0.4 0.4 -0.4 c 0.2 0 0.5 0.2 0.5 0.4 V 61.7 z"/><path d="M 61.1 68 h 2.5 c 0.3 0 0.5 -0.2 0.5 -0.5 v -4.9 c 0 -1.8 -1.1 -2.6 -1.5 -2.9 c -0.2 -0.1 -0.4 -0.1 -0.5 0 c -0.3 0.2 -1.5 1.1 -1.5 2.9 v 4.9 C 60.6 67.7 60.8 68 61.1 68 z M 61.6 62.6 c 0 -1 0.4 -1.5 0.7 -1.8 c 0.3 0.3 0.7 0.9 0.7 1.8 v 4.4 h -1.5 V 62.6 z"/><path d="M 71.3 33.5 h 3.1 c 0.3 0 0.5 -0.2 0.5 -0.5 v -3.6 c 0 -1.1 -0.9 -2.1 -2.1 -2.1 c -1.1 0 -2.1 0.9 -2.1 2.1 v 3.6 C 70.8 33.3 71 33.5 71.3 33.5 z M 71.7 29.4 c 0 -0.6 0.5 -1.1 1.1 -1.1 c 0.6 0 1.1 0.5 1.1 1.1 v 3.1 h -2.2 V 29.4 z"/><path d="M 39.8 78.5 c -0.4 0 -0.9 0.2 -1.1 0.5 c -0.3 -0.3 -0.7 -0.5 -1.1 -0.5 c -0.9 0 -1.6 0.7 -1.6 1.6 v 2.5 c 0 0.3 0.2 0.5 0.5 0.5 h 2.3 h 2.3 c 0.3 0 0.5 -0.2 0.5 -0.5 v -2.5 C 41.4 79.2 40.7 78.5 39.8 78.5 z M 36.9 80.1 c 0 -0.4 0.3 -0.7 0.6 -0.7 c 0.4 0 0.7 0.3 0.7 0.7 v 2 h -1.3 V 80.1 z M 40.5 82.1 h -1.3 v -2 c 0 -0.4 0.3 -0.7 0.7 -0.7 c 0.4 0 0.7 0.3 0.7 0.7 V 82.1 z"/><path d="M 38.7 75.3 c -2.4 0 -4.4 2 -4.4 4.4 c 0 0.3 0.2 0.5 0.5 0.5 s 0.5 -0.2 0.5 -0.5 c 0 -1.9 1.5 -3.4 3.5 -3.4 s 3.5 1.5 3.5 3.4 c 0 0.3 0.2 0.5 0.5 0.5 s 0.5 -0.2 0.5 -0.5 C 43.1 77.3 41.1 75.3 38.7 75.3 z"/><path d="M 61.6 78.5 c -0.4 0 -0.9 0.2 -1.1 0.5 c -0.3 -0.3 -0.7 -0.5 -1.1 -0.5 c -0.9 0 -1.6 0.7 -1.6 1.6 v 2.5 c 0 0.3 0.2 0.5 0.5 0.5 h 2.3 h 2.3 c 0.3 0 0.5 -0.2 0.5 -0.5 v -2.5 C 63.2 79.2 62.5 78.5 61.6 78.5 z M 58.6 80.1 c 0 -0.4 0.3 -0.7 0.7 -0.7 s 0.7 0.3 0.7 0.7 v 2 h -1.3 V 80.1 z M 62.2 82.1 h -1.3 v -2 c 0 -0.4 0.3 -0.7 0.7 -0.7 c 0.4 0 0.7 0.3 0.7 0.7 V 82.1 z"/><path d="M 60.4 75.3 c -2.4 0 -4.4 2 -4.4 4.4 c 0 0.3 0.2 0.5 0.5 0.5 c 0.3 0 0.5 -0.2 0.5 -0.5 c 0 -1.9 1.5 -3.5 3.5 -3.5 c 1.9 0 3.5 1.5 3.5 3.5 c 0 0.3 0.2 0.5 0.5 0.5 c 0.3 0 0.5 -0.2 0.5 -0.5 C 64.9 77.3 62.9 75.3 60.4 75.3 z"/><path d="M 77.4 46.7 c -0.2 0 -0.3 0 -0.5 0.1 c -0.6 0.2 -0.9 0.7 -0.9 1.3 v 2.4 c 0 0.3 0.2 0.5 0.5 0.5 h 0.5 h 0.5 h 0.5 h 0.5 c 0.3 0 0.5 -0.2 0.5 -0.5 v -2.4 c 0 -0.6 -0.4 -1.1 -0.9 -1.3 C 77.8 46.7 77.6 46.7 77.4 46.7 z M 77.9 50 h -0.5 h -0.5 v -1.9 c 0 -0.2 0.2 -0.5 0.5 -0.5 c 0.2 0 0.5 0.2 0.5 0.5 V 50 z"/><path d="M 81.2 44.7 l -3.3 -5.9 v -2.8 c 0 -0.3 -0.2 -0.5 -0.5 -0.5 h -0.5 v -2 c 1.5 -0.2 2.7 -1.6 2.7 -3.2 v -1.1 c 0 -0.3 -0.2 -0.5 -0.5 -0.5 h -2.2 v -3.5 c 0.6 -0.2 1 -0.8 1 -1.4 c 0 -0.8 -0.6 -1.4 -1.4 -1.5 l -2 -5 c 0.1 -0.3 0.2 -0.6 0.2 -0.9 c 0 -0.9 -0.6 -1.7 -1.5 -1.9 v -1.5 V 8 V 5.5 C 73.3 5.2 73.1 5 72.8 5 s -0.5 0.2 -0.5 0.5 v 1.1 c -0.9 -0.8 -2 -1.3 -3.3 -1.3 c -1.7 0 -3.1 0.6 -4.3 2.1 c -0.1 0.1 -0.1 0.2 -0.1 0.3 v 2.6 c -0.7 0.8 -1.4 1.2 -2.5 1.2 c -1 0 -1.7 -0.4 -2.3 -1.3 V 9.4 c 0 -0.1 0 -0.2 -0.1 -0.3 c -0.7 -1 -1.6 -1.5 -2.6 -1.5 c -1.1 0 -2 0.4 -2.7 1.3 c -0.1 0.1 -0.1 0.2 -0.1 0.3 v 1.5 c -0.7 1.1 -2.3 1.6 -4.5 1.4 c -0.2 0 -0.4 0.1 -0.5 0.3 c -0.1 0.2 0 0.4 0.2 0.6 c 1.2 0.9 2.8 1.2 3.9 1.2 c 0.5 0 1.3 -0.1 1.8 -0.4 c 0.1 -0.1 0.2 -0.2 0.2 -0.4 v -1 c 0.5 -0.6 1.1 -0.9 1.8 -0.9 c 0.7 0 1.3 0.3 1.7 0.9 v 1.7 c 0 0.1 0 0.2 0.1 0.3 c 0.8 1.2 1.9 1.8 3.2 1.8 c 1.4 0 2.4 -0.5 3.3 -1.6 c 0.1 -0.1 0.1 -0.2 0.1 -0.3 v -1.4 c 1 -1.1 2 -1.6 3.4 -1.6 c 1.4 0 2.4 0.6 3.3 1.8 v 1.3 c -0.8 0.2 -1.5 1 -1.5 1.9 c 0 0.3 0.1 0.6 0.2 0.9 l -2 5 c -0.7 0.1 -1.3 0.7 -1.3 1.5 c 0 0.7 0.4 1.2 1 1.4 v 10.2 h -0.5 c -0.3 0 -0.5 0.2 -0.5 0.5 v 9.4 c -1.9 -1.6 -4.1 -5.1 -4.1 -10.1 c 0 -0.3 -0.2 -0.5 -0.5 -0.5 s -0.5 0.2 -0.5 0.5 c 0 6.9 -4.3 11 -6.2 11 h 0 c -0.8 0 -1.5 0.7 -1.5 1.5 c 0 0.7 0.4 1.2 1 1.4 v 4.8 c 0 0.3 0.2 0.5 0.5 0.5 c 0.5 0 1 0.8 1 1.9 v 0.8 h -3.5 c -0.9 -1.6 -1.5 -3.5 -1.5 -5.5 c 0 -0.3 -0.2 -0.5 -0.5 -0.5 h -6.2 c -0.3 0 -0.5 0.2 -0.5 0.5 c 0 2 -0.6 3.8 -1.5 5.5 H 36.7 c -0.1 0 -0.3 0.1 -0.3 0.1 l -5 5 v -5.6 v -2.6 c 0 -0.3 -0.2 -0.5 -0.5 -0.5 h -0.5 v -8 c 0.6 -0.2 1 -0.8 1 -1.4 c 0 -0.7 -0.5 -1.3 -1.1 -1.5 l -3.6 -14.1 c -0.1 -0.2 -0.3 -0.4 -0.5 -0.4 c -0.2 0 -0.4 0.2 -0.5 0.4 L 22.2 43 c -0.6 0.2 -1.1 0.8 -1.1 1.5 c 0 0.6 0.4 1.2 1 1.4 v 8 h -0.5 c -0.3 0 -0.5 0.2 -0.5 0.5 v 2.6 v 8.6 h -1.3 c -0.3 0 -0.5 0.2 -0.5 0.5 v 2.6 c 0 0.1 0 0.1 0 0.2 L 20 70.7 v 9 l -0.7 3.2 c 0 0 0 0 0 0 c 0 0 0 0 0 0 L 18.7 94.5 c 0 0.1 0 0.3 0.1 0.4 C 18.9 94.9 19.1 95 19.2 95 h 14.2 c 0.1 0 0.3 -0.1 0.4 -0.2 c 0.1 -0.1 0.1 -0.2 0.1 -0.4 l -0.1 -1.6 h 8.6 h 14.2 h 8.7 l -0.1 1.6 c 0 0.1 0 0.3 0.1 0.4 C 65.5 94.9 65.7 95 65.8 95 h 14.2 c 0.1 0 0.3 -0.1 0.4 -0.2 c 0.1 -0.1 0.1 -0.2 0.1 -0.4 l -0.7 -11.4 c 0 0 0 0 0 -0.1 c 0 -0.1 0 -0.2 -0.1 -0.2 l -0.7 -3 v -8.1 v -0.9 l 0.7 -1.9 c 0 -0.1 0 -0.1 0 -0.2 v -2.6 c 0 -0.3 -0.2 -0.5 -0.5 -0.5 h -1.4 V 54.6 c 1.6 -0.2 2.8 -1.6 2.8 -3.3 v -5.9 h 0 c 0.2 0 0.3 -0.1 0.4 -0.2 C 81.3 45 81.3 44.9 81.2 44.7 z M 79.8 51.3 c 0 1.1 -0.8 2 -1.8 2.3 c -0.2 0 -0.3 0.1 -0.5 0.1 s -0.3 0 -0.5 -0.1 c -1 -0.2 -1.8 -1.2 -1.8 -2.3 v -5.9 h 1.8 h 0.5 h 0.5 h 1.8 V 51.3 z M 44.5 58.1 c 1 -1.7 1.6 -3.6 1.7 -5.7 h 5.3 c 0.2 3.9 2.4 7.5 4.9 9.6 h -5.5 l 0 -3.6 h 0.3 c 0.2 0 0.4 -0.1 0.5 -0.3 c 0.1 -0.2 0 -0.4 -0.2 -0.6 c -0.6 -0.4 -1.4 -2 -1.4 -3.3 c 0 -0.3 -0.2 -0.5 -0.5 -0.5 h -1.5 c -0.3 0 -0.5 0.2 -0.5 0.5 c 0 1.3 -0.8 2.8 -1.4 3.3 c -0.2 0.1 -0.2 0.4 -0.2 0.6 c 0.1 0.2 0.3 0.3 0.5 0.3 h 0.3 l 0 3.6 h -5.5 c 1.2 -1 2.3 -2.3 3.2 -3.8 C 44.4 58.1 44.5 58.1 44.5 58.1 z M 50.1 57.4 h -2.5 c 0.5 -0.7 0.9 -1.7 1 -2.7 h 0.6 C 49.2 55.7 49.6 56.7 50.1 57.4 z M 63.1 39.4 c 0.8 3.3 2.6 5.7 4.3 7 h -8.5 C 60.5 45.1 62.3 42.7 63.1 39.4 z M 56.4 47.3 h 0 h 11.3 h 0.5 h 0.5 h 1 c 0.3 0 0.5 0.2 0.5 0.5 c 0 0.3 -0.2 0.5 -0.5 0.5 h -1 h -0.5 h -0.5 H 56.4 c -0.3 0 -0.5 -0.2 -0.5 -0.5 C 55.9 47.5 56.1 47.3 56.4 47.3 z M 56.9 49.4 h 10.8 h 0.5 h 0.5 h 0.5 v 4.3 h -0.5 h -0.5 h -0.5 H 56.9 V 49.4 z M 67.7 54.6 h 0.5 v 0 c -0.2 0.4 -0.4 0.9 -0.5 1.4 h 0 h -9.3 c -0.1 -0.6 -0.2 -1 -0.5 -1.4 H 67.7 z M 78.1 72.1 v 7.2 H 67.6 v -6.9 v -0.3 v -1 h 10.5 V 72.1 z M 67 82.5 l 0.5 -2.2 h 10.7 l 0.5 2.2 H 67 z M 78.8 68.6 l -0.6 1.5 H 67.4 l -0.6 -1.5 v -2 h 0.9 v 0.8 c 0 0.3 0.2 0.5 0.5 0.5 h 1.8 c 0.3 0 0.5 -0.2 0.5 -0.5 v -0.8 h 0.9 v 0.8 c 0 0.3 0.2 0.5 0.5 0.5 h 1.8 c 0.3 0 0.5 -0.2 0.5 -0.5 v -0.8 h 0.9 v 0.8 c 0 0.3 0.2 0.5 0.5 0.5 h 1.8 c 0.3 0 0.5 -0.2 0.5 -0.5 v -0.8 h 0.9 V 68.6 z M 76.9 66 v 0.8 h -0.9 v -0.8 c 0 -0.3 -0.2 -0.5 -0.5 -0.5 h -1.8 c -0.3 0 -0.5 0.2 -0.5 0.5 v 0.8 h -0.9 v -0.8 c 0 -0.3 -0.2 -0.5 -0.5 -0.5 h -1.8 c -0.3 0 -0.5 0.2 -0.5 0.5 v 0.8 h -0.9 v -0.8 v -9.5 c 0 -1.1 0.5 -1.9 1 -1.9 c 0.3 0 0.5 -0.2 0.5 -0.5 v -4.8 c 0.6 -0.2 1 -0.8 1 -1.4 c 0 -0.8 -0.7 -1.5 -1.5 -1.5 c -0.3 0 -0.7 -0.1 -1 -0.3 v -9.5 h 8.2 v 2.3 l -3.3 5.9 c -0.1 0.2 -0.1 0.3 0 0.5 c 0.1 0.2 0.3 0.2 0.4 0.2 h 0 v 5.9 c 0 1.7 1.2 3 2.8 3.3 V 66 z M 69 23.3 c 0.1 0 0.1 -0.1 0.2 -0.1 h 7.2 c 0.1 0 0.1 0 0.2 0 c 0.2 0.1 0.4 0.3 0.4 0.5 c 0 0.3 -0.2 0.5 -0.5 0.5 h -7.2 c -0.3 0 -0.5 -0.2 -0.5 -0.5 C 68.7 23.6 68.8 23.4 69 23.3 z M 71.8 16.4 c 0 0 0 0 0 0 c 0 -0.5 0.4 -1 1 -1 c 0.5 0 1 0.4 1 1 c 0 0 0 0 0 0 c 0 0.2 -0.1 0.3 -0.2 0.5 c -0.2 0.3 -0.5 0.5 -0.8 0.5 c -0.4 0 -0.7 -0.2 -0.8 -0.5 C 71.9 16.8 71.8 16.6 71.8 16.4 z M 72.8 18.4 c 0.4 0 0.7 -0.1 1 -0.3 l 1.7 4.2 h -5.4 l 1.7 -4.2 C 72.1 18.3 72.4 18.4 72.8 18.4 z M 78.7 30.3 c 0 1.1 -0.7 1.9 -1.7 2.2 v -2.7 h 1.7 V 30.3 z M 76 29.2 v 3.8 v 2.5 h -6.3 V 25.3 h 6.3 V 29.2 z M 76.9 44.4 h -2 l 2 -3.6 l 0.5 -0.9 l 0.5 0.9 l 2 3.6 h -2 h -0.5 H 76.9 z M 54.3 12.2 v 0.1 v 0.9 c -0.4 0.1 -1.3 0.2 -2.4 0 C 52.9 13 53.7 12.7 54.3 12.2 z M 55.3 10.9 V 9.4 c 0.5 -0.6 1.1 -0.8 1.8 -0.8 c 0.7 0 1.3 0.3 1.7 0.9 v 0.9 v 0.7 c -0.5 -0.4 -1.1 -0.5 -1.7 -0.5 c -0.7 0 -1.3 0.2 -1.8 0.5 V 10.9 z M 59.9 12.4 v -0.7 c 0.7 0.5 1.4 0.8 2.3 0.8 c 1 0 1.8 -0.2 2.5 -0.8 v 1.1 v 1.4 c -0.7 0.8 -1.4 1.1 -2.5 1.1 c -1 0 -1.7 -0.4 -2.3 -1.3 V 12.4 z M 65.7 10.6 V 8 c 1 -1.1 2 -1.6 3.4 -1.6 c 1.4 0 2.4 0.6 3.3 1.8 v 3.5 c -0.9 -0.8 -2 -1.3 -3.3 -1.3 c -1.3 0 -2.4 0.4 -3.4 1.2 V 10.6 z M 57.4 58.4 v 3.1 c -1.1 -0.8 -2.1 -1.9 -2.9 -3.1 H 57.4 z M 36.9 58.4 h 6.2 c -1 1.6 -2.4 2.9 -3.7 3.6 c 0 0 0 0 -0.1 0.1 c 0 0 0 0 0 0 c 0 0 -0.1 0.1 -0.1 0.1 c 0 0 0 0 0 0 c 0 0.1 0 0.1 0 0.2 c 0 0 0 0 0 0 v 8.1 c 0 0.3 0.2 0.5 0.5 0.5 s 0.5 -0.2 0.5 -0.5 v -7.6 h 6.6 l 0 7.6 c 0 0.3 0.2 0.5 0.5 0.5 c 0 0 0 0 0 0 c 0.3 0 0.5 -0.2 0.5 -0.5 v 0 l 0 -7.6 l 0 -0.5 v -0.5 l 0 -3.6 h 2.1 l 0 3.6 v 0.5 l 0 0.5 l 0 7.6 v 0 c 0 0.3 0.2 0.5 0.5 0.5 c 0 0 0 0 0 0 c 0.3 0 0.5 -0.2 0.5 -0.5 l 0 -7.6 h 6.6 v 7.6 c 0 0.3 0.2 0.5 0.5 0.5 s 0.5 -0.2 0.5 -0.5 v -8.1 V 57.9 v -0.8 h 9.3 v 8.5 h -1.4 c -0.3 0 -0.5 0.2 -0.5 0.5 v 2.6 c 0 0.1 0 0.1 0 0.2 l 0.7 1.9 v 0.9 v 0.3 h -1.4 c -0.3 0 -0.5 0.2 -0.5 0.5 v 0.8 h -0.9 v -0.8 c 0 -0.3 -0.2 -0.5 -0.5 -0.5 h -1.8 c -0.3 0 -0.5 0.2 -0.5 0.5 v 0.8 h -0.9 v -0.8 c 0 -0.3 -0.2 -0.5 -0.5 -0.5 h -1.8 c -0.3 0 -0.5 0.2 -0.5 0.5 v 0.8 H 56.5 v -0.8 c 0 -0.3 -0.2 -0.5 -0.5 -0.5 h -1.8 c -0.3 0 -0.5 0.2 -0.5 0.5 v 0.8 h -0.9 v -0.8 c 0 -0.3 -0.2 -0.5 -0.5 -0.5 h -1.8 c -0.3 0 -0.5 0.2 -0.5 0.5 v 0.8 h -0.9 v -0.8 c 0 -0.3 -0.2 -0.5 -0.5 -0.5 h -1.8 c -0.3 0 -0.5 0.2 -0.5 0.5 v 0.8 h -0.9 v -0.8 c 0 -0.3 -0.2 -0.5 -0.5 -0.5 h -1.8 c -0.3 0 -0.5 0.2 -0.5 0.5 v 0.8 h -0.9 v -0.8 c 0 -0.3 -0.2 -0.5 -0.5 -0.5 H 39.4 c -0.3 0 -0.5 0.2 -0.5 0.5 v 0.8 h -0.9 v -0.8 c 0 -0.3 -0.2 -0.5 -0.5 -0.5 h -1.8 c -0.3 0 -0.5 0.2 -0.5 0.5 v 0.8 h -0.9 v -0.8 c 0 -0.3 -0.2 -0.5 -0.5 -0.5 h -1.4 v -1.2 l 0.7 -1.9 c 0 -0.1 0 -0.1 0 -0.2 v -2.6 c 0 -0.3 -0.2 -0.5 -0.5 -0.5 h -1.3 v -1.6 L 36.9 58.4 z M 20.3 66.5 h 0.9 h 0 v 0.8 c 0 0.3 0.2 0.5 0.5 0.5 c 0 0 0 0 0 0 h 0.5 h 1.4 c 0.3 0 0.5 -0.2 0.5 -0.5 v -0.8 h 0.9 v 0.8 c 0 0.3 0.2 0.5 0.5 0.5 h 1.8 c 0.3 0 0.5 -0.2 0.5 -0.5 v -0.8 h 0.9 v 0.8 c 0 0.3 0.2 0.5 0.5 0.5 h 1.4 h 0.5 c 0 0 0 0 0 0 c 0.3 0 0.5 -0.2 0.5 -0.5 v -0.8 h 0 h 0.9 v 2 l -0.6 1.5 H 20.8 l -0.6 -1.5 V 66.5 z M 22.1 55.8 v -1 h 0.5 h 0.4 v 0.8 c 0 0 0 0 0 0.1 c 0 0.1 0 0.1 0 0.2 c 0.1 0.2 0.2 0.3 0.4 0.3 h 1.9 c 0.3 0 0.5 -0.2 0.5 -0.4 c 0 0 0 0 0 -0.1 v -0.8 h 0.9 v 0.8 c 0 0 0 0 0 0.1 c 0 0.2 0.2 0.4 0.5 0.4 h 1.9 c 0.2 0 0.4 -0.1 0.4 -0.3 c 0 -0.1 0 -0.1 0 -0.2 c 0 0 0 0 0 -0.1 v -0.8 h 0.4 h 0.5 v 1 v 1.1 v 6.8 v 0 v 2.2 c 0 0 0 0 0 0 v 0.8 h -0.9 v -0.8 c 0 -0.3 -0.2 -0.5 -0.5 -0.5 h -1.8 c -0.3 0 -0.5 0.2 -0.5 0.5 v 0.8 h -0.9 v -0.8 c 0 -0.3 -0.2 -0.5 -0.5 -0.5 h -1.8 c -0.3 0 -0.5 0.2 -0.5 0.5 v 0.8 h -0.9 v -0.8 c 0 0 0 0 0 0 v -9 V 55.8 z M 26.2 31 l 3 11.9 h -6.1 L 26.2 31 z M 22.6 43.9 h 7.3 c 0.3 0 0.5 0.2 0.5 0.5 c 0 0.3 -0.2 0.5 -0.5 0.5 h -7.3 c -0.3 0 -0.5 -0.2 -0.5 -0.5 C 22.1 44.1 22.3 43.9 22.6 43.9 z M 23.1 46 h 6.4 v 7.9 h -0.4 c -0.3 0 -0.5 0.2 -0.5 0.5 V 55.1 h -0.9 v -0.8 c 0 -0.3 -0.2 -0.5 -0.5 -0.5 h -1.8 c -0.3 0 -0.5 0.2 -0.5 0.5 V 55.1 h -0.9 v -0.8 c 0 -0.3 -0.2 -0.5 -0.5 -0.5 h -0.4 V 46 z M 31.5 79.3 H 21 v -8.2 h 10.5 V 79.3 z M 20.9 80.2 h 10.7 l 0.5 2.2 H 20.4 L 20.9 80.2 z M 19.7 94 l 0.5 -10.5 h 12 l 0.6 10.5 H 19.7 z M 50.1 76.3 c 0 0.3 -0.2 0.6 -0.5 0.6 c 0 0 0 0 -0.1 0 c 0 0 0 0 -0.1 0 c -0.3 0 -0.5 -0.3 -0.5 -0.6 c 0 -0.1 0 -0.2 0.1 -0.3 c 0.1 -0.2 0.3 -0.3 0.5 -0.3 c 0.2 0 0.4 0.1 0.5 0.3 C 50.1 76.1 50.1 76.2 50.1 76.3 z M 48.6 78.6 v -0.3 c 0 -0.2 0.1 -0.4 0.1 -0.6 c 0.2 0.2 0.5 0.3 0.9 0.3 c 0.3 0 0.6 -0.1 0.8 -0.3 c 0.1 0.2 0.1 0.4 0.1 0.6 v 0.3 c 0 0.2 0.1 0.4 0.4 0.5 c 1.8 0.5 3.2 2 4.2 4.1 c -1.4 -1.5 -3.4 -2.4 -5.5 -2.4 s -4.1 0.9 -5.5 2.4 c 0.9 -2.1 2.4 -3.6 4.2 -4.1 C 48.4 79 48.6 78.8 48.6 78.6 z M 42.9 88.4 c 0 -0.2 0 -0.5 0 -0.7 c 0.3 -3.3 3.2 -5.9 6.6 -5.9 s 6.2 2.6 6.6 5.9 c 0 0.2 0 0.5 0 0.7 v 3.5 h -13.3 V 88.4 z M 57.2 91.9 v -3.5 c 0 -4.8 -2.3 -8.9 -5.6 -10.2 c 0 -0.5 -0.2 -1 -0.5 -1.4 c 0.1 -0.2 0.1 -0.3 0.1 -0.5 c 0 -0.9 -0.7 -1.6 -1.6 -1.6 s -1.6 0.7 -1.6 1.6 c 0 0.2 0 0.3 0.1 0.5 c -0.3 0.4 -0.5 0.9 -0.5 1.4 c -3.3 1.2 -5.6 5.4 -5.6 10.2 v 3.5 h -8.2 l -0.5 -8.9 c 0 0 0 0 0 -0.1 c 0 -0.1 0 -0.2 -0.1 -0.2 l -0.7 -3 v -6.8 h 0.9 v 0.8 c 0 0.3 0.2 0.5 0.5 0.5 h 1.8 c 0.3 0 0.5 -0.2 0.5 -0.5 v -0.8 h 0.9 v 0.8 c 0 0.3 0.2 0.5 0.5 0.5 h 1.8 c 0.3 0 0.5 -0.2 0.5 -0.5 v -0.8 h 0.9 v 0.8 c 0 0.3 0.2 0.5 0.5 0.5 h 1.8 c 0.3 0 0.5 -0.2 0.5 -0.5 v -0.8 h 0.9 v 0.8 c 0 0.3 0.2 0.5 0.5 0.5 h 1.8 c 0.3 0 0.5 -0.2 0.5 -0.5 v -0.8 h 0.9 v 0.8 c 0 0.3 0.2 0.5 0.5 0.5 h 1.8 c 0.3 0 0.5 -0.2 0.5 -0.5 v -0.8 h 0.9 v 0.8 c 0 0.3 0.2 0.5 0.5 0.5 h 1.8 c 0.3 0 0.5 -0.2 0.5 -0.5 v -0.8 h 0.9 v 0.8 c 0 0.3 0.2 0.5 0.5 0.5 h 1.8 c 0.3 0 0.5 -0.2 0.5 -0.5 v -0.8 h 0.9 v 0.8 c 0 0.3 0.2 0.5 0.5 0.5 h 1.8 c 0.3 0 0.5 -0.2 0.5 -0.5 v -0.8 h 0.9 v 0.8 c 0 0.3 0.2 0.5 0.5 0.5 h 1.8 c 0.3 0 0.5 -0.2 0.5 -0.5 v -0.8 h 0.9 v 6.8 l -0.7 3.2 c 0 0 0 0 0 0 c 0 0 0 0 0 0 l -0.4 9 H 57.2 z M 66.3 94 l 0.5 -10.5 h 12 l 0.6 10.5 H 66.3 z"/><path d="M 26.2 51.8 c 1.1 0 2 -0.9 2 -2 s -0.9 -2 -2 -2 c -1.1 0 -2 0.9 -2 2 S 25.1 51.8 26.2 51.8 z M 26.2 48.8 c 0.5 0 1 0.4 1 1 s -0.4 1 -1 1 c -0.5 0 -1 -0.4 -1 -1 S 25.7 48.8 26.2 48.8 z"/></g></g><g id="SvgjsG1410" featureKey="nameFeature-0" transform="matrix(0.8,0,0,0.8,129.1,40.6)" fill="#000000"><path d="M 5.9 40 c -0.2 0 -0.5 -0.1 -0.7 -0.2 l -3.5 -2 c -0.5 -0.3 -0.7 -0.7 -0.7 -1.2 l 0 -22 c 0 -0.6 0.2 -0.9 0.7 -1.2 l 3.7 -2.1 c 0.2 -0.1 0.3 -0.1 0.5 -0.1 c 0.6 0 1 0.5 1 1 c 0 0.4 -0.2 0.7 -0.5 0.9 l -3.4 1.9 l 0 21.3 l 2.9 1.7 l 6.7 -3.9 l 0 -6.6 l -1.8 1.1 l 0 3.9 c 0 0.6 -0.5 1 -1 1 s -1 -0.5 -1 -1 l 0 -4.3 c 0 -0.6 0.2 -0.9 0.7 -1.2 l 3.7 -2.1 c 0.2 -0.1 0.3 -0.1 0.5 -0.1 c 0.6 0 1 0.5 1 1 l 0 8.8 c 0 0.6 -0.2 0.9 -0.7 1.2 l -7.4 4.3 c -0.2 0.1 -0.5 0.2 -0.7 0.2 z M 5.9 35.5 c -0.6 0 -1 -0.5 -1 -1 l 0 -18 c 0 -0.6 0.5 -1 1 -1 s 1 0.5 1 1 l 0 18 c 0 0.6 -0.5 1 -1 1 z M 17.8 40 c -0.7 0 -1 -0.6 -1 -1 l 0 -15.7 c 0 -0.6 0.5 -1 1 -1 s 1 0.5 1 1 l 0 13.9 l 2.3 -1.4 c 0.2 -0.1 0.3 -0.1 0.5 -0.1 c 0.6 0 1 0.5 1 1 c 0 0.4 -0.2 0.7 -0.5 0.9 l -3.9 2.2 c -0.2 0.1 -0.3 0.1 -0.5 0.1 z M 21.7 33.3 c -0.6 0 -1 -0.5 -1 -1 l 0 -11.2 c 0 -0.6 0.5 -1 1 -1 s 1 0.5 1 1 l 0 11.2 c 0 0.6 -0.5 1 -1 1 z M 17.8 19.8 l 0 0 c -0.7 0 -1 -0.6 -1 -1 l 0 -4.3 c 0 -0.6 0.2 -0.9 0.7 -1.2 l 3.7 -2.1 c 0.2 -0.1 0.3 -0.1 0.5 -0.1 c 0.6 0 1 0.5 1 1 c 0 0.4 -0.2 0.7 -0.5 0.9 l -3.4 1.9 l 0 2.1 l 2.3 -1.4 c 0.2 -0.1 0.3 -0.1 0.5 -0.1 c 0.6 0 1 0.5 1 1 c 0 0.4 -0.2 0.7 -0.5 0.9 l -3.9 2.2 c -0.2 0.1 -0.3 0.1 -0.5 0.1 z M 29.6 40 l 0 0 c -0.7 0 -1 -0.6 -1 -1 l 0 -4.3 c 0 -0.6 0.2 -0.9 0.7 -1.2 l 3.7 -2.1 c 0.2 -0.1 0.3 -0.1 0.5 -0.1 c 0.6 0 1 0.5 1 1 c 0 0.4 -0.2 0.7 -0.5 0.9 l -3.4 1.9 l 0 2.1 l 5.7 -3.3 l 0 -6.6 l -6.2 3.6 c -0.2 0.1 -0.3 0.1 -0.5 0.1 c -0.7 0 -1 -0.6 -1 -1 l 0 -12.9 l -1.8 -1.1 l 0 20.7 c 0 0.6 -0.5 1 -1 1 s -1 -0.5 -1 -1 l 0 -22.5 c 0 -0.6 0.5 -1 1 -1 c 0.2 0 0.3 0 0.5 0.1 l 3.7 2.1 c 0.5 0.3 0.7 0.7 0.7 1.2 l 0 11.5 l 6.2 -3.6 c 0.2 -0.1 0.3 -0.1 0.5 -0.1 c 0.6 0 1 0.5 1 1 l 0 8.8 c 0 0.6 -0.2 0.9 -0.7 1.2 l -7.6 4.4 c -0.2 0.1 -0.3 0.1 -0.5 0.1 z M 37.4 40 c -0.6 0 -1 -0.5 -1 -1 c 0 -0.4 0.2 -0.7 0.5 -0.9 l 3.4 -1.9 l 0 -12.3 l -3.4 -1.9 c -0.3 -0.2 -0.5 -0.5 -0.5 -0.9 c 0 -0.6 0.5 -1 1 -1 c 0.2 0 0.4 0.1 0.5 0.1 l 3.7 2.1 c 0.5 0.3 0.7 0.7 0.7 1.2 l 0 13 c 0 0.6 -0.2 0.9 -0.7 1.2 l -3.7 2.1 c -0.2 0.1 -0.3 0.1 -0.5 0.1 z M 33.5 24.3 c -0.6 0 -1 -0.5 -1 -1 l 0 -8.4 l -3.4 -1.9 c -0.3 -0.2 -0.5 -0.5 -0.5 -0.9 c 0 -0.6 0.5 -1 1 -1 c 0.2 0 0.4 0.1 0.5 0.1 l 3.7 2.1 c 0.5 0.3 0.7 0.7 0.7 1.2 l 0 8.8 c 0 0.6 -0.5 1 -1 1 z M 45.4 40 l 0 0 c -0.6 0 -1 -0.5 -1 -1 l 0 -13.2 c 0 -0.6 0.2 -0.9 0.7 -1.2 l 7.4 -4.3 c 0.2 -0.1 0.5 -0.2 0.7 -0.2 s 0.5 0.1 0.7 0.2 l 3.5 2 c 0.5 0.3 0.7 0.7 0.7 1.2 l 0 4 c 0 0.6 -0.2 0.9 -0.7 1.2 l -3.2 1.8 l 0 6.1 c 0 0.6 -0.5 1 -1 1 s -1 -0.5 -1 -1 l 0 -6.5 c 0 -0.6 0.2 -0.9 0.7 -1.2 l 3.2 -1.8 l 0 -3.3 l -2.9 -1.7 l -6.7 3.9 l 0 11.1 l 1.8 -1.1 l 0 -8.2 c 0 -0.6 0.2 -0.9 0.7 -1.2 l 3.7 -2.1 c 0.2 -0.1 0.3 -0.1 0.5 -0.1 c 0.6 0 1 0.5 1 1 c 0 0.4 -0.2 0.7 -0.5 0.9 l -3.4 1.9 l 0 8.2 c 0 0.6 -0.2 0.9 -0.7 1.2 l -3.7 2.1 c -0.2 0.1 -0.3 0.1 -0.5 0.1 z M 65 40 c -0.2 0 -0.5 -0.1 -0.7 -0.2 l -3.5 -2 c -0.5 -0.3 -0.7 -0.7 -0.7 -1.2 l 0 -13 c 0 -0.6 0.2 -0.9 0.7 -1.2 l 3.7 -2.1 c 0.2 -0.1 0.3 -0.1 0.5 -0.1 c 0.6 0 1 0.5 1 1 c 0 0.4 -0.2 0.7 -0.5 0.9 l -3.4 1.9 l 0 12.3 l 2.9 1.7 l 6.7 -3.9 l 0 -3.9 c 0 -0.6 0.5 -1 1 -1 s 1 0.5 1 1 l 0 4.3 c 0 0.6 -0.2 0.9 -0.7 1.2 l -7.4 4.3 c -0.2 0.1 -0.5 0.2 -0.7 0.2 z M 65 35.5 l 0 0 c -0.7 0 -1 -0.6 -1 -1 l 0 -8.8 c 0 -0.6 0.2 -0.9 0.7 -1.2 l 7.6 -4.4 c 0.2 -0.1 0.3 -0.1 0.5 -0.1 c 0.6 0 1 0.5 1 1 l 0 4.3 c 0 0.6 -0.2 0.9 -0.7 1.2 l -3.7 2.1 c -0.2 0.1 -0.3 0.1 -0.5 0.1 c -0.6 0 -1 -0.5 -1 -1 c 0 -0.4 0.2 -0.7 0.5 -0.9 l 3.4 -1.9 l 0 -2.1 l -5.7 3.3 l 0 6.6 l 2.3 -1.4 c 0.2 -0.1 0.3 -0.1 0.5 -0.1 c 0.6 0 1 0.5 1 1 c 0 0.4 -0.2 0.7 -0.5 0.9 l -3.9 2.2 c -0.2 0.1 -0.3 0.1 -0.5 0.1 z M 76.8 40 l 0 0 c -0.6 0 -1 -0.5 -1 -1 l 0 -13.2 c 0 -0.6 0.2 -0.9 0.7 -1.2 l 7.4 -4.3 c 0.2 -0.1 0.5 -0.2 0.7 -0.2 s 0.5 0.1 0.7 0.2 l 3.5 2 c 0.5 0.3 0.7 0.7 0.7 1.2 l 0 4 c 0 0.6 -0.2 0.9 -0.7 1.2 l -3.2 1.8 l 0 6.1 c 0 0.6 -0.5 1 -1 1 s -1 -0.5 -1 -1 l 0 -6.5 c 0 -0.6 0.2 -0.9 0.7 -1.2 l 3.2 -1.8 l 0 -3.3 l -2.9 -1.7 l -6.7 3.9 l 0 11.1 l 1.8 -1.1 l 0 -8.2 c 0 -0.6 0.2 -0.9 0.7 -1.2 l 3.7 -2.1 c 0.2 -0.1 0.3 -0.1 0.5 -0.1 c 0.6 0 1 0.5 1 1 c 0 0.4 -0.2 0.7 -0.5 0.9 l -3.4 1.9 l 0 8.2 c 0 0.6 -0.2 0.9 -0.7 1.2 l -3.7 2.1 c -0.2 0.1 -0.3 0.1 -0.5 0.1 z M 92.5 40 c -0.7 0 -1 -0.6 -1 -1 l 0 -15.7 c 0 -0.6 0.5 -1 1 -1 s 1 0.5 1 1 l 0 13.9 l 2.3 -1.4 c 0.2 -0.1 0.3 -0.1 0.5 -0.1 c 0.6 0 1 0.5 1 1 c 0 0.4 -0.2 0.7 -0.5 0.9 l -3.9 2.2 c -0.2 0.1 -0.3 0.1 -0.5 0.1 z M 96.4 33.3 c -0.6 0 -1 -0.5 -1 -1 l 0 -11.2 c 0 -0.6 0.5 -1 1 -1 s 1 0.5 1 1 l 0 11.2 c 0 0.6 -0.5 1 -1 1 z M 92.5 15.3 c -0.6 0 -1 -0.5 -1 -1 c 0 -0.4 0.2 -0.7 0.5 -0.9 l 3.9 -2.2 c 0.2 -0.1 0.3 -0.1 0.5 -0.1 c 0.6 0 1 0.5 1 1 c 0 0.4 -0.2 0.7 -0.5 0.9 l -3.9 2.2 c -0.2 0.1 -0.3 0.1 -0.5 0.1 z M 92.5 19.8 c -0.6 0 -1 -0.5 -1 -1 c 0 -0.4 0.2 -0.7 0.5 -0.9 l 3.9 -2.2 c 0.2 -0.1 0.3 -0.1 0.5 -0.1 c 0.6 0 1 0.5 1 1 c 0 0.4 -0.2 0.7 -0.5 0.9 l -3.9 2.2 c -0.2 0.1 -0.3 0.1 -0.5 0.1 z M 108.3 40 c -0.6 0 -1 -0.5 -1 -1 c 0 -0.4 0.2 -0.7 0.5 -0.9 l 3.4 -1.9 l 0 -12.3 l -2.9 -1.7 l -6.7 3.9 l 0 3.9 c 0 0.6 -0.5 1 -1 1 s -1 -0.5 -1 -1 l 0 -4.3 c 0 -0.6 0.2 -0.9 0.7 -1.2 l 7.4 -4.3 c 0.2 -0.1 0.5 -0.2 0.7 -0.2 s 0.5 0.1 0.7 0.2 l 3.5 2 c 0.5 0.3 0.7 0.7 0.7 1.2 l 0 13 c 0 0.6 -0.2 0.9 -0.7 1.2 l -3.7 2.1 c -0.2 0.1 -0.3 0.1 -0.5 0.1 z M 100.5 40 l 0 0 c -0.7 0 -1 -0.6 -1 -1 l 0 -4.3 c 0 -0.6 0.2 -0.9 0.7 -1.2 l 3.7 -2.1 c 0.2 -0.1 0.3 -0.1 0.5 -0.1 c 0.6 0 1 0.5 1 1 c 0 0.4 -0.2 0.7 -0.5 0.9 l -3.4 1.9 l 0 2.1 l 5.7 -3.3 l 0 -6.6 l -2.3 1.4 c -0.2 0.1 -0.3 0.1 -0.5 0.1 c -0.6 0 -1 -0.5 -1 -1 c 0 -0.4 0.2 -0.7 0.5 -0.9 l 3.9 -2.2 c 0.2 -0.1 0.3 -0.1 0.5 -0.1 c 0.6 0 1 0.5 1 1 l 0 8.8 c 0 0.6 -0.2 0.9 -0.7 1.2 l -7.6 4.4 c -0.2 0.1 -0.3 0.1 -0.5 0.1 z M 126 39.8 c -0.2 0.1 -0.5 0.2 -0.7 0.2 s -0.5 -0.1 -0.7 -0.2 l -3.5 -2 c -0.5 -0.3 -0.7 -0.7 -0.7 -1.2 l 0 -22 c 0 -0.6 0.2 -0.9 0.7 -1.2 l 3.7 -2.1 c 0.2 -0.1 0.3 -0.1 0.5 -0.1 c 0.6 0 1 0.5 1 1 c 0 0.4 -0.2 0.7 -0.5 0.9 l -3.4 1.9 l 0 21.3 l 2.9 1.7 l 3.4 -1.9 c 0.2 -0.1 0.3 -0.1 0.5 -0.1 c 0.6 0 1 0.5 1 1 c 0 0.4 -0.2 0.7 -0.5 0.9 z M 125.3 35.5 c -0.6 0 -1 -0.5 -1 -1 l 0 -18 c 0 -0.6 0.5 -1 1 -1 s 1 0.5 1 1 l 0 18 c 0 0.6 -0.5 1 -1 1 z M 129.2 33.3 c -0.6 0 -1 -0.5 -1 -1 l 0 -18 c 0 -0.6 0.5 -1 1 -1 s 1 0.5 1 1 l 0 18 c 0 0.6 -0.5 1 -1 1 z M 133.2 40 l 0 0 c -0.7 0 -1 -0.6 -1 -1 l 0 -15.5 c 0 -0.6 0.2 -0.9 0.7 -1.2 l 3.7 -2.1 c 0.2 -0.1 0.3 -0.1 0.5 -0.1 c 0.6 0 1 0.5 1 1 c 0 0.4 -0.2 0.7 -0.5 0.9 l -3.4 1.9 l 0 13.4 l 1.8 -1.1 l 0 -5.9 c 0 -0.6 0.2 -0.9 0.7 -1.2 l 3.7 -2.1 c 0.2 -0.1 0.3 -0.1 0.5 -0.1 c 0.4 0 0.7 0.2 0.9 0.5 l 0.1 0.5 l 0 9.5 l 1.8 -1.1 l 0 -10.4 c 0 -0.6 0.2 -0.9 0.7 -1.2 l 7.6 -4.4 c 0.2 -0.1 0.3 -0.1 0.5 -0.1 c 0.6 0 1 0.5 1 1 l 0 18 c 0 0.7 -0.6 1 -1 1 c -0.2 0 -0.3 0 -0.5 -0.1 l -3.7 -2.1 c -0.5 -0.3 -0.7 -0.7 -0.7 -1.2 l 0 -8.8 c 0 -0.6 0.5 -1 1 -1 s 1 0.5 1 1 l 0 8.4 l 1.8 1.1 l 0 -14.4 l -5.7 3.3 l 0 10.4 c 0 0.6 -0.2 0.9 -0.7 1.2 l -3.7 2.1 c -0.2 0.1 -0.3 0.1 -0.5 0.1 c -0.7 0 -1 -0.6 -1 -1 l 0 -9.5 l -1.8 1.1 l 0 5.9 c 0 0.6 -0.2 0.9 -0.7 1.2 l -3.7 2.1 c -0.2 0.1 -0.3 0.1 -0.5 0.1 z M 137.1 26.5 c -0.6 0 -1 -0.5 -1 -1 c 0 -0.4 0.2 -0.7 0.5 -0.9 l 7.7 -4.5 c 0.2 -0.1 0.3 -0.1 0.5 -0.1 c 0.6 0 1 0.5 1 1 c 0 0.4 -0.2 0.7 -0.5 0.9 l -7.7 4.5 c -0.2 0.1 -0.3 0.1 -0.5 0.1 z M 160.6 49 c -0.6 0 -1 -0.5 -1 -1 c 0 -0.4 0.2 -0.7 0.5 -0.9 l 3.4 -1.9 l 0 -8.2 c 0 -0.6 0.2 -0.9 0.7 -1.2 l 7.1 -4.1 l 0 -7.8 l -2.9 -1.7 l -6.7 3.9 l 0 2.1 l 6.2 -3.6 c 0.2 -0.1 0.3 -0.1 0.5 -0.1 c 0.6 0 1 0.5 1 1 l 0 4.3 c 0 0.6 -0.2 0.9 -0.7 1.2 l -3.7 2.1 c -0.2 0.1 -0.3 0.1 -0.5 0.1 c -0.6 0 -1 -0.5 -1 -1 c 0 -0.4 0.2 -0.7 0.5 -0.9 l 3.4 -1.9 l 0 -2.1 l -6.2 3.6 c -0.2 0.1 -0.3 0.1 -0.5 0.1 c -0.7 0 -1 -0.6 -1 -1 l 0 -4.3 c 0 -0.6 0.2 -0.9 0.7 -1.2 l 7.4 -4.3 c 0.2 -0.1 0.5 -0.2 0.7 -0.2 s 0.5 0.1 0.7 0.2 l 3.5 2 c 0.5 0.3 0.7 0.7 0.7 1.2 l 0 8.5 c 0 0.6 -0.2 0.9 -0.7 1.2 l -7.1 4.1 l 0 8.2 c 0 0.6 -0.2 0.9 -0.7 1.2 l -3.7 2.1 c -0.2 0.1 -0.3 0.1 -0.5 0.1 z M 156.7 46.7 l 0 0 c -0.7 0 -1 -0.6 -1 -1 l 0 -22.2 c 0 -0.6 0.2 -0.9 0.7 -1.2 l 3.7 -2.1 c 0.2 -0.1 0.3 -0.1 0.5 -0.1 c 0.6 0 1 0.5 1 1 c 0 0.4 -0.2 0.7 -0.5 0.9 l -3.4 1.9 l 0 20.1 l 1.8 -1.1 l 0 -8.4 c 0 -0.6 0.5 -1 1 -1 s 1 0.5 1 1 l 0 8.8 c 0 0.6 -0.2 0.9 -0.7 1.2 l -3.7 2.1 c -0.2 0.1 -0.3 0.1 -0.5 0.1 z M 180.2 40 c -0.2 0 -0.5 -0.1 -0.7 -0.2 l -3.5 -2 c -0.5 -0.3 -0.7 -0.7 -0.7 -1.2 l 0 -13 c 0 -0.6 0.2 -0.9 0.7 -1.2 l 3.7 -2.1 c 0.2 -0.1 0.3 -0.1 0.5 -0.1 c 0.6 0 1 0.5 1 1 c 0 0.4 -0.2 0.7 -0.5 0.9 l -3.4 1.9 l 0 12.3 l 2.9 1.7 l 6.7 -3.9 l 0 -3.9 c 0 -0.6 0.5 -1 1 -1 s 1 0.5 1 1 l 0 4.3 c 0 0.6 -0.2 0.9 -0.7 1.2 l -7.4 4.3 c -0.2 0.1 -0.5 0.2 -0.7 0.2 z M 180.2 35.5 l 0 0 c -0.7 0 -1 -0.6 -1 -1 l 0 -8.8 c 0 -0.6 0.2 -0.9 0.7 -1.2 l 7.6 -4.4 c 0.2 -0.1 0.3 -0.1 0.5 -0.1 c 0.6 0 1 0.5 1 1 l 0 4.3 c 0 0.6 -0.2 0.9 -0.7 1.2 l -3.7 2.1 c -0.2 0.1 -0.3 0.1 -0.5 0.1 c -0.6 0 -1 -0.5 -1 -1 c 0 -0.4 0.2 -0.7 0.5 -0.9 l 3.4 -1.9 l 0 -2.1 l -5.7 3.3 l 0 6.6 l 2.3 -1.4 c 0.2 -0.1 0.3 -0.1 0.5 -0.1 c 0.6 0 1 0.5 1 1 c 0 0.4 -0.2 0.7 -0.5 0.9 l -3.9 2.2 c -0.2 0.1 -0.3 0.1 -0.5 0.1 z M 192.1 40 l 0 0 c -0.6 0 -1 -0.5 -1 -1 l 0 -13.2 c 0 -0.6 0.2 -0.9 0.7 -1.2 l 7.4 -4.3 c 0.2 -0.1 0.5 -0.2 0.7 -0.2 s 0.5 0.1 0.7 0.2 l 3.5 2 c 0.5 0.3 0.7 0.7 0.7 1.2 l 0 4 c 0 0.6 -0.2 0.9 -0.7 1.2 l -3.2 1.8 l 0 6.1 c 0 0.6 -0.5 1 -1 1 s -1 -0.5 -1 -1 l 0 -6.5 c 0 -0.6 0.2 -0.9 0.7 -1.2 l 3.2 -1.8 l 0 -3.3 l -2.9 -1.7 l -6.7 3.9 l 0 11.1 l 1.8 -1.1 l 0 -8.2 c 0 -0.6 0.2 -0.9 0.7 -1.2 l 3.7 -2.1 c 0.2 -0.1 0.3 -0.1 0.5 -0.1 c 0.6 0 1 0.5 1 1 c 0 0.4 -0.2 0.7 -0.5 0.9 l -3.4 1.9 l 0 8.2 c 0 0.6 -0.2 0.9 -0.7 1.2 l -3.7 2.1 c -0.2 0.1 -0.3 0.1 -0.5 0.1 z M 207.8 40 c -0.7 0 -1 -0.6 -1 -1 l 0 -15.7 c 0 -0.6 0.5 -1 1 -1 s 1 0.5 1 1 l 0 13.9 l 2.3 -1.4 c 0.2 -0.1 0.3 -0.1 0.5 -0.1 c 0.6 0 1 0.5 1 1 c 0 0.4 -0.2 0.7 -0.5 0.9 l -3.9 2.2 c -0.2 0.1 -0.3 0.1 -0.5 0.1 z M 211.7 33.3 c -0.6 0 -1 -0.5 -1 -1 l 0 -11.2 c 0 -0.6 0.5 -1 1 -1 s 1 0.5 1 1 l 0 11.2 c 0 0.6 -0.5 1 -1 1 z M 207.8 19.8 l 0 0 c -0.7 0 -1 -0.6 -1 -1 l 0 -4.3 c 0 -0.6 0.2 -0.9 0.7 -1.2 l 3.7 -2.1 c 0.2 -0.1 0.3 -0.1 0.5 -0.1 c 0.6 0 1 0.5 1 1 c 0 0.4 -0.2 0.7 -0.5 0.9 l -3.4 1.9 l 0 2.1 l 2.3 -1.4 c 0.2 -0.1 0.3 -0.1 0.5 -0.1 c 0.6 0 1 0.5 1 1 c 0 0.4 -0.2 0.7 -0.5 0.9 l -3.9 2.2 c -0.2 0.1 -0.3 0.1 -0.5 0.1 z M 223.5 40 c -0.6 0 -1 -0.5 -1 -1 c 0 -0.4 0.2 -0.7 0.5 -0.9 l 3.4 -1.9 l 0 -12.3 l -2.9 -1.7 l -6.7 3.9 l 0 3.9 c 0 0.6 -0.5 1 -1 1 s -1 -0.5 -1 -1 l 0 -4.3 c 0 -0.6 0.2 -0.9 0.7 -1.2 l 7.4 -4.3 c 0.2 -0.1 0.5 -0.2 0.7 -0.2 s 0.5 0.1 0.7 0.2 l 3.5 2 c 0.5 0.3 0.7 0.7 0.7 1.2 l 0 13 c 0 0.6 -0.2 0.9 -0.7 1.2 l -3.7 2.1 c -0.2 0.1 -0.3 0.1 -0.5 0.1 z M 215.8 40 l 0 0 c -0.7 0 -1 -0.6 -1 -1 l 0 -4.3 c 0 -0.6 0.2 -0.9 0.7 -1.2 l 3.7 -2.1 c 0.2 -0.1 0.3 -0.1 0.5 -0.1 c 0.6 0 1 0.5 1 1 c 0 0.4 -0.2 0.7 -0.5 0.9 l -3.4 1.9 l 0 2.1 l 5.7 -3.3 l 0 -6.6 l -2.3 1.4 c -0.2 0.1 -0.3 0.1 -0.5 0.1 c -0.6 0 -1 -0.5 -1 -1 c 0 -0.4 0.2 -0.7 0.5 -0.9 l 3.9 -2.2 c 0.2 -0.1 0.3 -0.1 0.5 -0.1 c 0.6 0 1 0.5 1 1 l 0 8.8 c 0 0.6 -0.2 0.9 -0.7 1.2 l -7.6 4.4 c -0.2 0.1 -0.3 0.1 -0.5 0.1 z M 235.4 35.7 l 0 0 c 0.6 0 1 0.5 1 1 c 0 0.4 -0.2 0.7 -0.5 0.9 l -3.9 2.2 c -0.2 0.1 -0.3 0.1 -0.5 0.1 c -0.6 0 -1 -0.5 -1 -1 l 0 -24.5 c 0 -0.6 0.2 -0.9 0.7 -1.2 l 3.7 -2.1 c 0.2 -0.1 0.3 -0.1 0.5 -0.1 c 0.6 0 1 0.5 1 1 c 0 0.4 -0.2 0.7 -0.5 0.9 l -3.4 1.9 l 0 22.3 l 2.3 -1.4 c 0.2 -0.1 0.3 -0.1 0.5 -0.1 z M 235.4 15.5 c 0.6 0 1 0.5 1 1 l 0 15.7 c 0 0.6 -0.5 1 -1 1 s -1 -0.5 -1 -1 l 0 -15.7 c 0 -0.6 0.5 -1 1 -1 z"/></g>
			</g>
		</svg>
	