
        <svg xmlns="http://www.w3.org/2000/svg" xmlns:xlink="http://www.w3.org/1999/xlink" version="1.1" width="3181.8" height="1372.7" viewBox="0 0 3181.8181818181824 1372.7272727272727">
			
			<defs id="SvgjsDefs1407" transform="matrix(9.1,0,0,9.1,90.9,90.9)">
    
        
        
        </defs>
    <g featureKey="symbolContainer" id="SvgjsG1408" fill="#000000" transform="matrix(9.1,0,0,9.1,90.9,90.9)">
        <rect x="13.2" y="14.3" width="110" height="131" rx="8"/>
    </g>
    <g featureKey="symbolFeature-0" id="SvgjsG1409" fill="#ffffff" transform="matrix(10,0,0,10,82.7,176.4)">
        <g xmlns="http://www.w3.org/2000/svg">
            <path d="M 36.1 76.3 h 4.3 c 0.3 0 0.5 -0.2 0.5 -0.5 v -1.5 c 0 -1.5 -1.2 -2.6 -2.6 -2.6 c -1.5 0 -2.6 1.2 -2.6 2.6 v 1.5 C 35.6 76.1 35.8 76.3 36.1 76.3 z M 36.6 74.3 c 0 -0.9 0.7 -1.7 1.7 -1.7 c 0.9 0 1.7 0.7 1.7 1.7 v 1.1 h -3.3 V 74.3 z"/>
            <path d="M 54.3 82.9 h 2.5 c 0.3 0 0.5 -0.2 0.5 -0.5 v -2.3 c 0 -1 -0.8 -1.7 -1.7 -1.7 c -1 0 -1.7 0.8 -1.7 1.7 v 2.3 C 53.8 82.6 54 82.9 54.3 82.9 z M 54.7 80.1 c 0 -0.4 0.3 -0.8 0.8 -0.8 c 0.4 0 0.8 0.3 0.8 0.8 v 1.8 h -1.5 V 80.1 z"/>
            <path d="M 64.9 82.9 h 2.5 c 0.3 0 0.5 -0.2 0.5 -0.5 v -2.3 c 0 -1 -0.8 -1.7 -1.7 -1.7 s -1.7 0.8 -1.7 1.7 v 2.3 C 64.4 82.6 64.6 82.9 64.9 82.9 z M 65.4 80.1 c 0 -0.4 0.3 -0.8 0.8 -0.8 c 0.4 0 0.8 0.3 0.8 0.8 v 1.8 h -1.5 V 80.1 z"/>
            <path d="M 85.2 68.2 c -0.8 0 -1.4 0.6 -1.4 1.4 v 5.6 c 0 0.3 0.2 0.5 0.5 0.5 h 1.9 c 0.3 0 0.5 -0.2 0.5 -0.5 V 69.6 C 86.6 68.9 85.9 68.2 85.2 68.2 z M 85.6 74.7 h -0.9 V 69.6 c 0 -0.2 0.2 -0.4 0.4 -0.4 c 0.2 0 0.5 0.2 0.5 0.4 V 74.7 z"/>
            <path d="M 73.1 81 h 2.5 c 0.3 0 0.5 -0.2 0.5 -0.5 v -4.9 c 0 -1.8 -1.1 -2.6 -1.5 -2.9 c -0.2 -0.1 -0.4 -0.1 -0.5 0 c -0.3 0.2 -1.5 1.1 -1.5 2.9 v 4.9 C 72.6 80.7 72.8 81 73.1 81 z M 73.6 75.6 c 0 -1 0.4 -1.5 0.7 -1.8 c 0.3 0.3 0.7 0.9 0.7 1.8 v 4.4 h -1.5 V 75.6 z"/>
            <path d="M 83.3 46.5 h 3.1 c 0.3 0 0.5 -0.2 0.5 -0.5 v -3.6 c 0 -1.1 -0.9 -2.1 -2.1 -2.1 c -1.1 0 -2.1 0.9 -2.1 2.1 v 3.6 C 82.8 46.3 83 46.5 83.3 46.5 z M 83.7 42.4 c 0 -0.6 0.5 -1.1 1.1 -1.1 c 0.6 0 1.1 0.5 1.1 1.1 v 3.1 h -2.2 V 42.4 z"/>
            <path d="M 51.8 91.5 c -0.4 0 -0.9 0.2 -1.1 0.5 c -0.3 -0.3 -0.7 -0.5 -1.1 -0.5 c -0.9 0 -1.6 0.7 -1.6 1.6 v 2.5 c 0 0.3 0.2 0.5 0.5 0.5 h 2.3 h 2.3 c 0.3 0 0.5 -0.2 0.5 -0.5 v -2.5 C 53.4 92.2 52.7 91.5 51.8 91.5 z M 48.9 93.1 c 0 -0.4 0.3 -0.7 0.6 -0.7 c 0.4 0 0.7 0.3 0.7 0.7 v 2 h -1.3 V 93.1 z M 52.5 95.1 h -1.3 v -2 c 0 -0.4 0.3 -0.7 0.7 -0.7 c 0.4 0 0.7 0.3 0.7 0.7 V 95.1 z"/>
            <path d="M 50.7 88.3 c -2.4 0 -4.4 2 -4.4 4.4 c 0 0.3 0.2 0.5 0.5 0.5 s 0.5 -0.2 0.5 -0.5 c 0 -1.9 1.5 -3.4 3.5 -3.4 s 3.5 1.5 3.5 3.4 c 0 0.3 0.2 0.5 0.5 0.5 s 0.5 -0.2 0.5 -0.5 C 55.1 90.3 53.1 88.3 50.7 88.3 z"/>
            <path d="M 73.6 91.5 c -0.4 0 -0.9 0.2 -1.1 0.5 c -0.3 -0.3 -0.7 -0.5 -1.1 -0.5 c -0.9 0 -1.6 0.7 -1.6 1.6 v 2.5 c 0 0.3 0.2 0.5 0.5 0.5 h 2.3 h 2.3 c 0.3 0 0.5 -0.2 0.5 -0.5 v -2.5 C 75.2 92.2 74.5 91.5 73.6 91.5 z M 70.6 93.1 c 0 -0.4 0.3 -0.7 0.7 -0.7 s 0.7 0.3 0.7 0.7 v 2 h -1.3 V 93.1 z M 74.2 95.1 h -1.3 v -2 c 0 -0.4 0.3 -0.7 0.7 -0.7 c 0.4 0 0.7 0.3 0.7 0.7 V 95.1 z"/>
            <path d="M 72.4 88.3 c -2.4 0 -4.4 2 -4.4 4.4 c 0 0.3 0.2 0.5 0.5 0.5 c 0.3 0 0.5 -0.2 0.5 -0.5 c 0 -1.9 1.5 -3.5 3.5 -3.5 c 1.9 0 3.5 1.5 3.5 3.5 c 0 0.3 0.2 0.5 0.5 0.5 c 0.3 0 0.5 -0.2 0.5 -0.5 C 76.9 90.3 74.9 88.3 72.4 88.3 z"/>
            <path d="M 89.4 59.7 c -0.2 0 -0.3 0 -0.5 0.1 c -0.6 0.2 -0.9 0.7 -0.9 1.3 v 2.4 c 0 0.3 0.2 0.5 0.5 0.5 h 0.5 h 0.5 h 0.5 h 0.5 c 0.3 0 0.5 -0.2 0.5 -0.5 v -2.4 c 0 -0.6 -0.4 -1.1 -0.9 -1.3 C 89.8 59.7 89.6 59.7 89.4 59.7 z M 89.9 63 h -0.5 h -0.5 v -1.9 c 0 -0.2 0.2 -0.5 0.5 -0.5 c 0.2 0 0.5 0.2 0.5 0.5 V 63 z"/>
            <path d="M 93.2 57.7 l -3.3 -5.9 v -2.8 c 0 -0.3 -0.2 -0.5 -0.5 -0.5 h -0.5 v -2 c 1.5 -0.2 2.7 -1.6 2.7 -3.2 v -1.1 c 0 -0.3 -0.2 -0.5 -0.5 -0.5 h -2.2 v -3.5 c 0.6 -0.2 1 -0.8 1 -1.4 c 0 -0.8 -0.6 -1.4 -1.4 -1.5 l -2 -5 c 0.1 -0.3 0.2 -0.6 0.2 -0.9 c 0 -0.9 -0.6 -1.7 -1.5 -1.9 v -1.5 V 21 V 18.5 C 85.3 18.2 85.1 18 84.8 18 s -0.5 0.2 -0.5 0.5 v 1.1 c -0.9 -0.8 -2 -1.3 -3.3 -1.3 c -1.7 0 -3.1 0.6 -4.3 2.1 c -0.1 0.1 -0.1 0.2 -0.1 0.3 v 2.6 c -0.7 0.8 -1.4 1.2 -2.5 1.2 c -1 0 -1.7 -0.4 -2.3 -1.3 V 22.4 c 0 -0.1 0 -0.2 -0.1 -0.3 c -0.7 -1 -1.6 -1.5 -2.6 -1.5 c -1.1 0 -2 0.4 -2.7 1.3 c -0.1 0.1 -0.1 0.2 -0.1 0.3 v 1.5 c -0.7 1.1 -2.3 1.6 -4.5 1.4 c -0.2 0 -0.4 0.1 -0.5 0.3 c -0.1 0.2 0 0.4 0.2 0.6 c 1.2 0.9 2.8 1.2 3.9 1.2 c 0.5 0 1.3 -0.1 1.8 -0.4 c 0.1 -0.1 0.2 -0.2 0.2 -0.4 v -1 c 0.5 -0.6 1.1 -0.9 1.8 -0.9 c 0.7 0 1.3 0.3 1.7 0.9 v 1.7 c 0 0.1 0 0.2 0.1 0.3 c 0.8 1.2 1.9 1.8 3.2 1.8 c 1.4 0 2.4 -0.5 3.3 -1.6 c 0.1 -0.1 0.1 -0.2 0.1 -0.3 v -1.4 c 1 -1.1 2 -1.6 3.4 -1.6 c 1.4 0 2.4 0.6 3.3 1.8 v 1.3 c -0.8 0.2 -1.5 1 -1.5 1.9 c 0 0.3 0.1 0.6 0.2 0.9 l -2 5 c -0.7 0.1 -1.3 0.7 -1.3 1.5 c 0 0.7 0.4 1.2 1 1.4 v 10.2 h -0.5 c -0.3 0 -0.5 0.2 -0.5 0.5 v 9.4 c -1.9 -1.6 -4.1 -5.1 -4.1 -10.1 c 0 -0.3 -0.2 -0.5 -0.5 -0.5 s -0.5 0.2 -0.5 0.5 c 0 6.9 -4.3 11 -6.2 11 h 0 c -0.8 0 -1.5 0.7 -1.5 1.5 c 0 0.7 0.4 1.2 1 1.4 v 4.8 c 0 0.3 0.2 0.5 0.5 0.5 c 0.5 0 1 0.8 1 1.9 v 0.8 h -3.5 c -0.9 -1.6 -1.5 -3.5 -1.5 -5.5 c 0 -0.3 -0.2 -0.5 -0.5 -0.5 h -6.2 c -0.3 0 -0.5 0.2 -0.5 0.5 c 0 2 -0.6 3.8 -1.5 5.5 H 48.7 c -0.1 0 -0.3 0.1 -0.3 0.1 l -5 5 v -5.6 v -2.6 c 0 -0.3 -0.2 -0.5 -0.5 -0.5 h -0.5 v -8 c 0.6 -0.2 1 -0.8 1 -1.4 c 0 -0.7 -0.5 -1.3 -1.1 -1.5 l -3.6 -14.1 c -0.1 -0.2 -0.3 -0.4 -0.5 -0.4 c -0.2 0 -0.4 0.2 -0.5 0.4 L 34.2 56 c -0.6 0.2 -1.1 0.8 -1.1 1.5 c 0 0.6 0.4 1.2 1 1.4 v 8 h -0.5 c -0.3 0 -0.5 0.2 -0.5 0.5 v 2.6 v 8.6 h -1.3 c -0.3 0 -0.5 0.2 -0.5 0.5 v 2.6 c 0 0.1 0 0.1 0 0.2 L 32 83.7 v 9 l -0.7 3.2 c 0 0 0 0 0 0 c 0 0 0 0 0 0 L 30.7 107.5 c 0 0.1 0 0.3 0.1 0.4 C 30.9 107.9 31.1 108 31.2 108 h 14.2 c 0.1 0 0.3 -0.1 0.4 -0.2 c 0.1 -0.1 0.1 -0.2 0.1 -0.4 l -0.1 -1.6 h 8.6 h 14.2 h 8.7 l -0.1 1.6 c 0 0.1 0 0.3 0.1 0.4 C 77.5 107.9 77.7 108 77.8 108 h 14.2 c 0.1 0 0.3 -0.1 0.4 -0.2 c 0.1 -0.1 0.1 -0.2 0.1 -0.4 l -0.7 -11.4 c 0 0 0 0 0 -0.1 c 0 -0.1 0 -0.2 -0.1 -0.2 l -0.7 -3 v -8.1 v -0.9 l 0.7 -1.9 c 0 -0.1 0 -0.1 0 -0.2 v -2.6 c 0 -0.3 -0.2 -0.5 -0.5 -0.5 h -1.4 V 67.6 c 1.6 -0.2 2.8 -1.6 2.8 -3.3 v -5.9 h 0 c 0.2 0 0.3 -0.1 0.4 -0.2 C 93.3 58 93.3 57.9 93.2 57.7 z M 91.8 64.3 c 0 1.1 -0.8 2 -1.8 2.3 c -0.2 0 -0.3 0.1 -0.5 0.1 s -0.3 0 -0.5 -0.1 c -1 -0.2 -1.8 -1.2 -1.8 -2.3 v -5.9 h 1.8 h 0.5 h 0.5 h 1.8 V 64.3 z M 56.5 71.1 c 1 -1.7 1.6 -3.6 1.7 -5.7 h 5.3 c 0.2 3.9 2.4 7.5 4.9 9.6 h -5.5 l 0 -3.6 h 0.3 c 0.2 0 0.4 -0.1 0.5 -0.3 c 0.1 -0.2 0 -0.4 -0.2 -0.6 c -0.6 -0.4 -1.4 -2 -1.4 -3.3 c 0 -0.3 -0.2 -0.5 -0.5 -0.5 h -1.5 c -0.3 0 -0.5 0.2 -0.5 0.5 c 0 1.3 -0.8 2.8 -1.4 3.3 c -0.2 0.1 -0.2 0.4 -0.2 0.6 c 0.1 0.2 0.3 0.3 0.5 0.3 h 0.3 l 0 3.6 h -5.5 c 1.2 -1 2.3 -2.3 3.2 -3.8 C 56.4 71.1 56.5 71.1 56.5 71.1 z M 62.1 70.4 h -2.5 c 0.5 -0.7 0.9 -1.7 1 -2.7 h 0.6 C 61.2 68.7 61.6 69.7 62.1 70.4 z M 75.1 52.4 c 0.8 3.3 2.6 5.7 4.3 7 h -8.5 C 72.5 58.1 74.3 55.7 75.1 52.4 z M 68.4 60.3 h 0 h 11.3 h 0.5 h 0.5 h 1 c 0.3 0 0.5 0.2 0.5 0.5 c 0 0.3 -0.2 0.5 -0.5 0.5 h -1 h -0.5 h -0.5 H 68.4 c -0.3 0 -0.5 -0.2 -0.5 -0.5 C 67.9 60.5 68.1 60.3 68.4 60.3 z M 68.9 62.4 h 10.8 h 0.5 h 0.5 h 0.5 v 4.3 h -0.5 h -0.5 h -0.5 H 68.9 V 62.4 z M 79.7 67.6 h 0.5 v 0 c -0.2 0.4 -0.4 0.9 -0.5 1.4 h 0 h -9.3 c -0.1 -0.6 -0.2 -1 -0.5 -1.4 H 79.7 z M 90.1 85.1 v 7.2 H 79.6 v -6.9 v -0.3 v -1 h 10.5 V 85.1 z M 79 95.5 l 0.5 -2.2 h 10.7 l 0.5 2.2 H 79 z M 90.8 81.6 l -0.6 1.5 H 79.4 l -0.6 -1.5 v -2 h 0.9 v 0.8 c 0 0.3 0.2 0.5 0.5 0.5 h 1.8 c 0.3 0 0.5 -0.2 0.5 -0.5 v -0.8 h 0.9 v 0.8 c 0 0.3 0.2 0.5 0.5 0.5 h 1.8 c 0.3 0 0.5 -0.2 0.5 -0.5 v -0.8 h 0.9 v 0.8 c 0 0.3 0.2 0.5 0.5 0.5 h 1.8 c 0.3 0 0.5 -0.2 0.5 -0.5 v -0.8 h 0.9 V 81.6 z M 88.9 79 v 0.8 h -0.9 v -0.8 c 0 -0.3 -0.2 -0.5 -0.5 -0.5 h -1.8 c -0.3 0 -0.5 0.2 -0.5 0.5 v 0.8 h -0.9 v -0.8 c 0 -0.3 -0.2 -0.5 -0.5 -0.5 h -1.8 c -0.3 0 -0.5 0.2 -0.5 0.5 v 0.8 h -0.9 v -0.8 v -9.5 c 0 -1.1 0.5 -1.9 1 -1.9 c 0.3 0 0.5 -0.2 0.5 -0.5 v -4.8 c 0.6 -0.2 1 -0.8 1 -1.4 c 0 -0.8 -0.7 -1.5 -1.5 -1.5 c -0.3 0 -0.7 -0.1 -1 -0.3 v -9.5 h 8.2 v 2.3 l -3.3 5.9 c -0.1 0.2 -0.1 0.3 0 0.5 c 0.1 0.2 0.3 0.2 0.4 0.2 h 0 v 5.9 c 0 1.7 1.2 3 2.8 3.3 V 79 z M 81 36.3 c 0.1 0 0.1 -0.1 0.2 -0.1 h 7.2 c 0.1 0 0.1 0 0.2 0 c 0.2 0.1 0.4 0.3 0.4 0.5 c 0 0.3 -0.2 0.5 -0.5 0.5 h -7.2 c -0.3 0 -0.5 -0.2 -0.5 -0.5 C 80.7 36.6 80.8 36.4 81 36.3 z M 83.8 29.4 c 0 0 0 0 0 0 c 0 -0.5 0.4 -1 1 -1 c 0.5 0 1 0.4 1 1 c 0 0 0 0 0 0 c 0 0.2 -0.1 0.3 -0.2 0.5 c -0.2 0.3 -0.5 0.5 -0.8 0.5 c -0.4 0 -0.7 -0.2 -0.8 -0.5 C 83.9 29.8 83.8 29.6 83.8 29.4 z M 84.8 31.4 c 0.4 0 0.7 -0.1 1 -0.3 l 1.7 4.2 h -5.4 l 1.7 -4.2 C 84.1 31.3 84.4 31.4 84.8 31.4 z M 90.7 43.3 c 0 1.1 -0.7 1.9 -1.7 2.2 v -2.7 h 1.7 V 43.3 z M 88 42.2 v 3.8 v 2.5 h -6.3 V 38.3 h 6.3 V 42.2 z M 88.9 57.4 h -2 l 2 -3.6 l 0.5 -0.9 l 0.5 0.9 l 2 3.6 h -2 h -0.5 H 88.9 z M 66.3 25.2 v 0.1 v 0.9 c -0.4 0.1 -1.3 0.2 -2.4 0 C 64.9 26 65.7 25.7 66.3 25.2 z M 67.3 23.9 V 22.4 c 0.5 -0.6 1.1 -0.8 1.8 -0.8 c 0.7 0 1.3 0.3 1.7 0.9 v 0.9 v 0.7 c -0.5 -0.4 -1.1 -0.5 -1.7 -0.5 c -0.7 0 -1.3 0.2 -1.8 0.5 V 23.9 z M 71.9 25.4 v -0.7 c 0.7 0.5 1.4 0.8 2.3 0.8 c 1 0 1.8 -0.2 2.5 -0.8 v 1.1 v 1.4 c -0.7 0.8 -1.4 1.1 -2.5 1.1 c -1 0 -1.7 -0.4 -2.3 -1.3 V 25.4 z M 77.7 23.6 V 21 c 1 -1.1 2 -1.6 3.4 -1.6 c 1.4 0 2.4 0.6 3.3 1.8 v 3.5 c -0.9 -0.8 -2 -1.3 -3.3 -1.3 c -1.3 0 -2.4 0.4 -3.4 1.2 V 23.6 z M 69.4 71.4 v 3.1 c -1.1 -0.8 -2.1 -1.9 -2.9 -3.1 H 69.4 z M 48.9 71.4 h 6.2 c -1 1.6 -2.4 2.9 -3.7 3.6 c 0 0 0 0 -0.1 0.1 c 0 0 0 0 0 0 c 0 0 -0.1 0.1 -0.1 0.1 c 0 0 0 0 0 0 c 0 0.1 0 0.1 0 0.2 c 0 0 0 0 0 0 v 8.1 c 0 0.3 0.2 0.5 0.5 0.5 s 0.5 -0.2 0.5 -0.5 v -7.6 h 6.6 l 0 7.6 c 0 0.3 0.2 0.5 0.5 0.5 c 0 0 0 0 0 0 c 0.3 0 0.5 -0.2 0.5 -0.5 v 0 l 0 -7.6 l 0 -0.5 v -0.5 l 0 -3.6 h 2.1 l 0 3.6 v 0.5 l 0 0.5 l 0 7.6 v 0 c 0 0.3 0.2 0.5 0.5 0.5 c 0 0 0 0 0 0 c 0.3 0 0.5 -0.2 0.5 -0.5 l 0 -7.6 h 6.6 v 7.6 c 0 0.3 0.2 0.5 0.5 0.5 s 0.5 -0.2 0.5 -0.5 v -8.1 V 70.9 v -0.8 h 9.3 v 8.5 h -1.4 c -0.3 0 -0.5 0.2 -0.5 0.5 v 2.6 c 0 0.1 0 0.1 0 0.2 l 0.7 1.9 v 0.9 v 0.3 h -1.4 c -0.3 0 -0.5 0.2 -0.5 0.5 v 0.8 h -0.9 v -0.8 c 0 -0.3 -0.2 -0.5 -0.5 -0.5 h -1.8 c -0.3 0 -0.5 0.2 -0.5 0.5 v 0.8 h -0.9 v -0.8 c 0 -0.3 -0.2 -0.5 -0.5 -0.5 h -1.8 c -0.3 0 -0.5 0.2 -0.5 0.5 v 0.8 H 68.5 v -0.8 c 0 -0.3 -0.2 -0.5 -0.5 -0.5 h -1.8 c -0.3 0 -0.5 0.2 -0.5 0.5 v 0.8 h -0.9 v -0.8 c 0 -0.3 -0.2 -0.5 -0.5 -0.5 h -1.8 c -0.3 0 -0.5 0.2 -0.5 0.5 v 0.8 h -0.9 v -0.8 c 0 -0.3 -0.2 -0.5 -0.5 -0.5 h -1.8 c -0.3 0 -0.5 0.2 -0.5 0.5 v 0.8 h -0.9 v -0.8 c 0 -0.3 -0.2 -0.5 -0.5 -0.5 h -1.8 c -0.3 0 -0.5 0.2 -0.5 0.5 v 0.8 h -0.9 v -0.8 c 0 -0.3 -0.2 -0.5 -0.5 -0.5 H 51.4 c -0.3 0 -0.5 0.2 -0.5 0.5 v 0.8 h -0.9 v -0.8 c 0 -0.3 -0.2 -0.5 -0.5 -0.5 h -1.8 c -0.3 0 -0.5 0.2 -0.5 0.5 v 0.8 h -0.9 v -0.8 c 0 -0.3 -0.2 -0.5 -0.5 -0.5 h -1.4 v -1.2 l 0.7 -1.9 c 0 -0.1 0 -0.1 0 -0.2 v -2.6 c 0 -0.3 -0.2 -0.5 -0.5 -0.5 h -1.3 v -1.6 L 48.9 71.4 z M 32.3 79.5 h 0.9 h 0 v 0.8 c 0 0.3 0.2 0.5 0.5 0.5 c 0 0 0 0 0 0 h 0.5 h 1.4 c 0.3 0 0.5 -0.2 0.5 -0.5 v -0.8 h 0.9 v 0.8 c 0 0.3 0.2 0.5 0.5 0.5 h 1.8 c 0.3 0 0.5 -0.2 0.5 -0.5 v -0.8 h 0.9 v 0.8 c 0 0.3 0.2 0.5 0.5 0.5 h 1.4 h 0.5 c 0 0 0 0 0 0 c 0.3 0 0.5 -0.2 0.5 -0.5 v -0.8 h 0 h 0.9 v 2 l -0.6 1.5 H 32.8 l -0.6 -1.5 V 79.5 z M 34.1 68.8 v -1 h 0.5 h 0.4 v 0.8 c 0 0 0 0 0 0.1 c 0 0.1 0 0.1 0 0.2 c 0.1 0.2 0.2 0.3 0.4 0.3 h 1.9 c 0.3 0 0.5 -0.2 0.5 -0.4 c 0 0 0 0 0 -0.1 v -0.8 h 0.9 v 0.8 c 0 0 0 0 0 0.1 c 0 0.2 0.2 0.4 0.5 0.4 h 1.9 c 0.2 0 0.4 -0.1 0.4 -0.3 c 0 -0.1 0 -0.1 0 -0.2 c 0 0 0 0 0 -0.1 v -0.8 h 0.4 h 0.5 v 1 v 1.1 v 6.8 v 0 v 2.2 c 0 0 0 0 0 0 v 0.8 h -0.9 v -0.8 c 0 -0.3 -0.2 -0.5 -0.5 -0.5 h -1.8 c -0.3 0 -0.5 0.2 -0.5 0.5 v 0.8 h -0.9 v -0.8 c 0 -0.3 -0.2 -0.5 -0.5 -0.5 h -1.8 c -0.3 0 -0.5 0.2 -0.5 0.5 v 0.8 h -0.9 v -0.8 c 0 0 0 0 0 0 v -9 V 68.8 z M 38.2 44 l 3 11.9 h -6.1 L 38.2 44 z M 34.6 56.9 h 7.3 c 0.3 0 0.5 0.2 0.5 0.5 c 0 0.3 -0.2 0.5 -0.5 0.5 h -7.3 c -0.3 0 -0.5 -0.2 -0.5 -0.5 C 34.1 57.1 34.3 56.9 34.6 56.9 z M 35.1 59 h 6.4 v 7.9 h -0.4 c -0.3 0 -0.5 0.2 -0.5 0.5 V 68.1 h -0.9 v -0.8 c 0 -0.3 -0.2 -0.5 -0.5 -0.5 h -1.8 c -0.3 0 -0.5 0.2 -0.5 0.5 V 68.1 h -0.9 v -0.8 c 0 -0.3 -0.2 -0.5 -0.5 -0.5 h -0.4 V 59 z M 43.5 92.3 H 33 v -8.2 h 10.5 V 92.3 z M 32.9 93.2 h 10.7 l 0.5 2.2 H 32.4 L 32.9 93.2 z M 31.7 107 l 0.5 -10.5 h 12 l 0.6 10.5 H 31.7 z M 62.1 89.3 c 0 0.3 -0.2 0.6 -0.5 0.6 c 0 0 0 0 -0.1 0 c 0 0 0 0 -0.1 0 c -0.3 0 -0.5 -0.3 -0.5 -0.6 c 0 -0.1 0 -0.2 0.1 -0.3 c 0.1 -0.2 0.3 -0.3 0.5 -0.3 c 0.2 0 0.4 0.1 0.5 0.3 C 62.1 89.1 62.1 89.2 62.1 89.3 z M 60.6 91.6 v -0.3 c 0 -0.2 0.1 -0.4 0.1 -0.6 c 0.2 0.2 0.5 0.3 0.9 0.3 c 0.3 0 0.6 -0.1 0.8 -0.3 c 0.1 0.2 0.1 0.4 0.1 0.6 v 0.3 c 0 0.2 0.1 0.4 0.4 0.5 c 1.8 0.5 3.2 2 4.2 4.1 c -1.4 -1.5 -3.4 -2.4 -5.5 -2.4 s -4.1 0.9 -5.5 2.4 c 0.9 -2.1 2.4 -3.6 4.2 -4.1 C 60.4 92 60.6 91.8 60.6 91.6 z M 54.9 101.4 c 0 -0.2 0 -0.5 0 -0.7 c 0.3 -3.3 3.2 -5.9 6.6 -5.9 s 6.2 2.6 6.6 5.9 c 0 0.2 0 0.5 0 0.7 v 3.5 h -13.3 V 101.4 z M 69.2 104.9 v -3.5 c 0 -4.8 -2.3 -8.9 -5.6 -10.2 c 0 -0.5 -0.2 -1 -0.5 -1.4 c 0.1 -0.2 0.1 -0.3 0.1 -0.5 c 0 -0.9 -0.7 -1.6 -1.6 -1.6 s -1.6 0.7 -1.6 1.6 c 0 0.2 0 0.3 0.1 0.5 c -0.3 0.4 -0.5 0.9 -0.5 1.4 c -3.3 1.2 -5.6 5.4 -5.6 10.2 v 3.5 h -8.2 l -0.5 -8.9 c 0 0 0 0 0 -0.1 c 0 -0.1 0 -0.2 -0.1 -0.2 l -0.7 -3 v -6.8 h 0.9 v 0.8 c 0 0.3 0.2 0.5 0.5 0.5 h 1.8 c 0.3 0 0.5 -0.2 0.5 -0.5 v -0.8 h 0.9 v 0.8 c 0 0.3 0.2 0.5 0.5 0.5 h 1.8 c 0.3 0 0.5 -0.2 0.5 -0.5 v -0.8 h 0.9 v 0.8 c 0 0.3 0.2 0.5 0.5 0.5 h 1.8 c 0.3 0 0.5 -0.2 0.5 -0.5 v -0.8 h 0.9 v 0.8 c 0 0.3 0.2 0.5 0.5 0.5 h 1.8 c 0.3 0 0.5 -0.2 0.5 -0.5 v -0.8 h 0.9 v 0.8 c 0 0.3 0.2 0.5 0.5 0.5 h 1.8 c 0.3 0 0.5 -0.2 0.5 -0.5 v -0.8 h 0.9 v 0.8 c 0 0.3 0.2 0.5 0.5 0.5 h 1.8 c 0.3 0 0.5 -0.2 0.5 -0.5 v -0.8 h 0.9 v 0.8 c 0 0.3 0.2 0.5 0.5 0.5 h 1.8 c 0.3 0 0.5 -0.2 0.5 -0.5 v -0.8 h 0.9 v 0.8 c 0 0.3 0.2 0.5 0.5 0.5 h 1.8 c 0.3 0 0.5 -0.2 0.5 -0.5 v -0.8 h 0.9 v 0.8 c 0 0.3 0.2 0.5 0.5 0.5 h 1.8 c 0.3 0 0.5 -0.2 0.5 -0.5 v -0.8 h 0.9 v 6.8 l -0.7 3.2 c 0 0 0 0 0 0 c 0 0 0 0 0 0 l -0.4 9 H 69.2 z M 78.3 107 l 0.5 -10.5 h 12 l 0.6 10.5 H 78.3 z"/>
            <path d="M 38.2 64.8 c 1.1 0 2 -0.9 2 -2 s -0.9 -2 -2 -2 c -1.1 0 -2 0.9 -2 2 S 37.1 64.8 38.2 64.8 z M 38.2 61.8 c 0.5 0 1 0.4 1 1 s -0.4 1 -1 1 c -0.5 0 -1 -0.4 -1 -1 S 37.7 61.8 38.2 61.8 z"/>
        </g>
    </g>
</svg>
	